<?xml version="1.0" encoding="UTF-8"?>
<svg version="1.1" xmlns="http://www.w3.org/2000/svg" width="256" height="256">
<path d="M0 0 C-1.30783654 2.85401712 -2.41623653 4.44596771 -4.625 6.8125 C-7.28154592 9.84083784 -7.28154592 9.84083784 -7.5 13.6875 C-7.24353067 16.89406451 -7.24353067 16.89406451 -5.8125 18.875 C-3.5774211 20.26229035 -1.59094622 20.64987213 1 21 C1.38468326 24.37666417 1.14492972 25.77319655 -0.71484375 28.68359375 C-1.44832031 29.59238281 -2.18179688 30.50117187 -2.9375 31.4375 C-6.04860588 35.29483233 -7.75430236 37.97372831 -8 43 C-5.81567858 45.88642473 -4.44696406 46.85101198 -1 48 C0.62442649 47.90107433 2.24523183 47.73492389 3.859375 47.52734375 C19.46082556 45.87664213 19.46082556 45.87664213 23.76171875 49.015625 C25.4375 51.6875 25.4375 51.6875 26.78125 54.48046875 C28.71908034 58.48656031 30.95313453 59.29605664 35 61 C36.35298943 61.21584656 37.70722141 61.42402713 39.0625 61.625 C41.94681688 62.23514395 42.79818346 62.72992198 44.59375 65.1328125 C45.58388253 66.89714441 46.55492911 68.67230641 47.5078125 70.45703125 C51.46912254 77.20785019 57.81815178 80.54944742 65.21875 82.62109375 C67.13832867 83.11112704 69.06845892 83.55947309 71 84 C71 84.66 71 85.32 71 86 C69.845 86.37125 68.69 86.7425 67.5 87.125 C58.16193239 90.65965587 50.58000747 98.28946386 44.625 106.125 C40.24817888 110.91866123 34.43195464 114.70811167 28 116 C26.59316639 116.0450427 25.18408183 116.04012103 23.77734375 115.9921875 C22.59881836 115.96705078 22.59881836 115.96705078 21.39648438 115.94140625 C19.75302918 115.89702382 18.10976534 115.84490056 16.46679688 115.78515625 C15.68240234 115.77097656 14.89800781 115.75679688 14.08984375 115.7421875 C13.37691162 115.7201123 12.66397949 115.69803711 11.92944336 115.67529297 C9.40374595 116.10034391 8.5252804 116.97850065 7 119 C6.91975342 121.59889783 6.91975342 121.59889783 8 124 C9.30611813 124.71852464 10.64914193 125.36959957 12 126 C20.40740401 130.85116875 28.37757924 135.97549829 35.75 142.3125 C36.60730713 143.04895752 36.60730713 143.04895752 37.48193359 143.80029297 C40.68077095 146.62674842 43.52808346 149.5141177 46 153 C46 153.66 46 154.32 46 155 C44.35546875 156.078125 44.35546875 156.078125 42.1875 157.25 C38.26095571 159.63795158 36.33877277 161.44817258 35 166 C35.0365366 169.84365081 35.78343224 173.35029673 37 177 C37.66 177 38.32 177 39 177 C40.02297922 177.97648017 41.01904252 178.98131338 42 180 C43.31963709 181.01800576 44.65009646 182.02248365 46 183 C45.525625 183.7425 45.05125 184.485 44.5625 185.25 C41.57514225 190.50774965 41.21114732 196.05391693 42 202 C43.08214084 204.76981176 44.34993625 207.28208058 45.80859375 209.87109375 C47 212 47 212 48 215 C46.72125 214.98839844 45.4425 214.97679687 44.125 214.96484375 C42.41666814 214.95545731 40.70833468 214.94635803 39 214.9375 C38.16082031 214.92912109 37.32164062 214.92074219 36.45703125 214.91210938 C31.198081 214.89172585 26.20796203 215.28335817 21 216 C14.31398006 216.46730247 7.84953438 216.64553467 2 213 C-0.24609123 211.01322659 -2.30668024 208.94930795 -4.3359375 206.7421875 C-6.5325956 204.44239991 -7.63910067 204.04811991 -10.8125 203.625 C-14.08825961 203.77629385 -14.08825961 203.77629385 -16.75 205.75 C-20.0272751 210.48384181 -20.39719201 215.35879683 -21 221 C-24.88847991 219.47269638 -26.76365184 217.12557367 -29.3125 213.875 C-31.95049999 210.52029297 -34.57749846 207.41620918 -37.625 204.4375 C-41.74652337 199.87711071 -43.49110595 194.17110107 -45.42822266 188.43334961 C-47.17659752 183.420807 -48.94040449 180.45689105 -53 177 C-56.03102856 177.87740301 -57.61722854 178.34928852 -59.25 181.125 C-61.87955977 191.20497913 -61.54365331 201.77329684 -60 212 C-59.48874096 217.12908259 -59.491592 220.86585907 -61.625 225.625 C-63.82763689 227.91701925 -65.07965389 228.00611275 -68.30859375 228.25390625 C-70.78209656 228.21015022 -73.25544692 228.09965225 -75.72265625 227.91796875 C-78.94455637 227.7661568 -78.94455637 227.7661568 -81.32421875 229.1640625 C-83.38241667 231.41896465 -83.98542045 233.24386872 -84.75 236.1875 C-85.11351563 237.53908203 -85.11351563 237.53908203 -85.484375 238.91796875 C-85.65453125 239.60503906 -85.8246875 240.29210937 -86 241 C-86.66 241 -87.32 241 -88 241 C-88.556875 239.948125 -89.11375 238.89625 -89.6875 237.8125 C-92.21119602 233.43751141 -95.30430044 230.2952077 -99.33203125 227.21875 C-105.61018761 222.17363484 -108.56430607 217.69372751 -110.93530273 210.14111328 C-112.00725106 206.86106196 -112.76169199 205.18453217 -115.52734375 203.04296875 C-117.90099346 201.81661012 -117.90099346 201.81661012 -120.25 202.1875 C-122.19421191 202.86931817 -122.19421191 202.86931817 -123 205 C-123.66 205 -124.32 205 -125 205 C-125.25876118 199.73852264 -125.01648994 195.60091334 -123.4375 190.5625 C-121.85517484 185.17199514 -121.38596483 180.4473687 -123 175 C-124.81429854 172.09846705 -124.81429854 172.09846705 -128 171 C-132.73476963 170.59889613 -136.63206659 171.30695247 -140.375 174.3125 C-142.47884943 176.46644108 -144.21730851 178.59336649 -146 181 C-146.66 181 -147.32 181 -148 181 C-148.4125 180.236875 -148.825 179.47375 -149.25 178.6875 C-151.47133672 175.27616146 -153.16887196 174.32615971 -157 173 C-161.38796902 173.23094574 -165.00997969 174.18635441 -169 176 C-167.95558323 173.26844845 -166.89263153 170.82242908 -165.375 168.3125 C-163.50874205 163.81651495 -163.74378022 159.80174842 -164 155 C-164.66 155 -165.32 155 -166 155 C-167.02104551 154.02149805 -168.0206121 153.02019573 -169 152 C-169.66 151.67 -170.32 151.34 -171 151 C-170.09934091 144.92055113 -165.14141091 141.14141091 -161 137 C-159.64444707 135.35135455 -158.30368347 133.68996005 -157 132 C-158.65 130.68 -160.3 129.36 -162 128 C-160.44793719 114.97084112 -157.4927171 106.0385406 -149 96 C-148.36964844 95.16210938 -147.73929688 94.32421875 -147.08984375 93.4609375 C-139.04460683 83.9871071 -126.14599194 80.29109224 -114.1875 79.25 C-112.45912418 79.15161897 -110.73005058 79.06234417 -109 79 C-112.37793463 74.59269475 -115.75859504 70.22431611 -119.4375 66.0625 C-122 63 -122 63 -122 61 C-122.57234375 60.773125 -123.1446875 60.54625 -123.734375 60.3125 C-126.62894375 58.63564638 -128.17830585 56.6231523 -130.25 54 C-131.02730469 53.02160156 -131.80460937 52.04320312 -132.60546875 51.03515625 C-133.39566406 50.03355469 -134.18585938 49.03195313 -135 48 C-135.77988281 47.04996094 -136.55976563 46.09992187 -137.36328125 45.12109375 C-138.08902344 44.23550781 -138.81476563 43.34992187 -139.5625 42.4375 C-140.22378906 41.63183594 -140.88507813 40.82617188 -141.56640625 39.99609375 C-143 38 -143 38 -143 36 C-144.485 35.505 -144.485 35.505 -146 35 C-147.640625 32.85546875 -147.640625 32.85546875 -149.25 30.1875 C-149.79140625 29.31480469 -150.3328125 28.44210938 -150.890625 27.54296875 C-152 25 -152 25 -151.671875 22.67578125 C-151.45015625 22.12277344 -151.2284375 21.56976562 -151 21 C-146.54902465 22.3773123 -144.58032267 24.28428722 -141.75 27.9375 C-140.96882813 28.92878906 -140.18765625 29.92007813 -139.3828125 30.94140625 C-138.59648437 31.95074219 -137.81015625 32.96007813 -137 34 C-135.54742281 35.79633656 -134.08916161 37.58809308 -132.625 39.375 C-131.88507813 40.27863281 -131.14515625 41.18226562 -130.3828125 42.11328125 C-118.87214579 56.39634189 -118.87214579 56.39634189 -106.25 69.6484375 C-105 71 -105 71 -105 73 C-104.34 73 -103.68 73 -103 73 C-102.86537354 71.95827637 -102.86537354 71.95827637 -102.72802734 70.89550781 C-98.53021595 39.39362557 -98.53021595 39.39362557 -86 28 C-79.25600385 23.37176735 -71.31358926 20.63865343 -63.69921875 17.74609375 C-62.64347656 17.33488281 -61.58773437 16.92367188 -60.5 16.5 C-59.5409375 16.1390625 -58.581875 15.778125 -57.59375 15.40625 C-54.5376949 13.74935265 -53.08304513 11.74084885 -51 9 C-50.34 9 -49.68 9 -49 9 C-48.71125 9.639375 -48.4225 10.27875 -48.125 10.9375 C-47.17176549 13.15206079 -47.17176549 13.15206079 -45 14 C-39.69941399 14.75722657 -36.92872286 13.02003921 -32.734375 10.09375 C-31 9 -31 9 -29 9 C-29 8.34 -29 7.68 -29 7 C-19.0614173 2.21340319 -11.12008698 -0.41016714 0 0 Z M-4 91 C-4.50014953 93.54258463 -4.50014953 93.54258463 -4 96 C-2.12782652 98.28987808 -2.12782652 98.28987808 0.875 98.3125 C4.32602209 97.96739779 5.69219344 97.57409193 8 95 C8.50014953 92.45741537 8.50014953 92.45741537 8 90 C6.12782652 87.71012192 6.12782652 87.71012192 3.125 87.6875 C-0.32602209 88.03260221 -1.69219344 88.42590807 -4 91 Z M-68 92 C-69.49242923 95.44270507 -70.39864636 98.6033016 -70.96142578 102.30932617 C-71.12144073 103.34357224 -71.28145569 104.3778183 -71.44631958 105.44340515 C-71.61098724 106.54876114 -71.77565491 107.65411713 -71.9453125 108.79296875 C-72.12005096 109.935345 -72.29478943 111.07772125 -72.474823 112.25471497 C-72.84229471 114.66409536 -73.20690488 117.0739137 -73.56884766 119.48413086 C-74.12462515 123.18500393 -74.6884698 126.8845759 -75.25390625 130.58398438 C-75.6098421 132.92440818 -75.9653265 135.26490069 -76.3203125 137.60546875 C-76.48902863 138.71689743 -76.65774475 139.82832611 -76.83157349 140.97343445 C-76.98528412 141.99822403 -77.13899475 143.02301361 -77.29736328 144.07885742 C-77.43345001 144.98310959 -77.56953674 145.88736176 -77.70974731 146.8190155 C-78.04397341 148.96371784 -78.04397341 148.96371784 -78 151 C-75.03 151 -72.06 151 -69 151 C-67.46191783 144.64259371 -66.55087284 138.51866188 -66 132 C-63.03 132 -60.06 132 -57 132 C-56.608125 133.27875 -56.21625 134.5575 -55.8125 135.875 C-54.05558013 141.18799327 -51.60879653 146.06081605 -49 151 C-45.7 151 -42.4 151 -39 151 C-40.12313331 148.24922431 -41.24842978 145.4993678 -42.375 142.75 C-42.69210938 141.97269531 -43.00921875 141.19539063 -43.3359375 140.39453125 C-43.6453125 139.64042969 -43.9546875 138.88632813 -44.2734375 138.109375 C-44.55622559 137.41811523 -44.83901367 136.72685547 -45.13037109 136.01464844 C-45.96920293 133.96042382 -45.96920293 133.96042382 -47.17041016 131.99316406 C-48.2179904 129.4762585 -48.01702943 128.504712 -47 126 C-45.70898438 124.12475586 -45.70898438 124.12475586 -44.09375 122.21484375 C-43.22556641 121.17166992 -43.22556641 121.17166992 -42.33984375 120.10742188 C-41.73269531 119.39134766 -41.12554687 118.67527344 -40.5 117.9375 C-39.29817274 116.51240334 -38.10008218 115.0841447 -36.90625 113.65234375 C-36.37322266 113.02320068 -35.84019531 112.39405762 -35.29101562 111.74584961 C-33.80107304 109.91955098 -33.80107304 109.91955098 -33 107 C-36.54351357 106.43753753 -38.58400203 106.14858057 -42 107 C-45.52221007 109.93517506 -48.22590993 113.36663156 -51 117 C-51.74636719 117.89332031 -52.49273437 118.78664063 -53.26171875 119.70703125 C-55.20137301 121.78606769 -55.20137301 121.78606769 -55 124 C-57.97 123.67 -60.94 123.34 -64 123 C-63.87882812 122.23856689 -63.75765625 121.47713379 -63.6328125 120.69262695 C-63.08457564 117.23319967 -62.54222904 113.77287382 -62 110.3125 C-61.80921875 109.11431641 -61.6184375 107.91613281 -61.421875 106.68164062 C-61.24140625 105.52470703 -61.0609375 104.36777344 -60.875 103.17578125 C-60.70742187 102.11270752 -60.53984375 101.04963379 -60.3671875 99.9543457 C-60.03259931 97.26229003 -59.92993695 94.70837469 -60 92 C-62.64 92 -65.28 92 -68 92 Z M-121.1875 112.25 C-126.98033438 120.50592931 -128.20127807 133.13950917 -127 143 C-125.71907118 146.98511187 -124.72506069 148.46483616 -121.375 150.9375 C-116.96465593 152.32594165 -113.43101364 152.35960862 -109 151 C-106.08209475 148.7495803 -106.08209475 148.7495803 -104 146 C-103 145 -102 144 -101 143 C-100.896875 143.94875 -100.79375 144.8975 -100.6875 145.875 C-100.31460705 149.29107501 -100.31460705 149.29107501 -97 151 C-94.48415109 151.24150773 -94.48415109 151.24150773 -91.8125 151.125 C-90.91144531 151.10695312 -90.01039062 151.08890625 -89.08203125 151.0703125 C-88.39496094 151.04710937 -87.70789063 151.02390625 -87 151 C-86.67 148.69 -86.34 146.38 -86 144 C-87.65 144 -89.3 144 -91 144 C-90.52501837 135.79428285 -89.40818708 127.76849026 -88.01635742 119.67651367 C-87.29798262 115.39421893 -86.83869159 111.36234056 -87 107 C-89.64 107 -92.28 107 -95 107 C-95.33 109.31 -95.66 111.62 -96 114 C-96.66 114 -97.32 114 -98 114 C-98.2475 113.05125 -98.495 112.1025 -98.75 111.125 C-99.70353647 108.03294039 -99.70353647 108.03294039 -101.625 106.625 C-109.53050796 104.54460317 -115.74726575 106.1013323 -121.1875 112.25 Z M-19 108 C-19.04092937 110.33297433 -19.04241723 112.66705225 -19 115 C-14.71 115 -10.42 115 -6 115 C-7.32 124.24 -8.64 133.48 -10 143 C-15.28 143 -20.56 143 -26 143 C-27.37756808 146.94711972 -27.37756808 146.94711972 -28 151 C-15.13 151 -2.26 151 11 151 C11.33 148.36 11.66 145.72 12 143 C7.71 143 3.42 143 -1 143 C-0.6390625 140.90398437 -0.278125 138.80796875 0.09375 136.6484375 C0.44243171 134.60322687 0.78941099 132.55773417 1.13623047 130.51220703 C1.37696675 129.09784097 1.61945375 127.68377167 1.86376953 126.27001953 C2.21594781 124.23026042 2.56168081 122.18949405 2.90625 120.1484375 C3.11572266 118.92302246 3.32519531 117.69760742 3.54101562 116.43505859 C3.96820073 113.23798709 4.08621116 110.21998673 4 107 C0.35418313 106.97112488 -3.29160463 106.95324415 -6.9375 106.9375 C-7.97841797 106.92912109 -9.01933594 106.92074219 -10.09179688 106.91210938 C-11.08115234 106.90888672 -12.07050781 106.90566406 -13.08984375 106.90234375 C-14.00628662 106.89710693 -14.92272949 106.89187012 -15.86694336 106.88647461 C-17.98363023 106.76078789 -17.98363023 106.76078789 -19 108 Z " fill="#F36353" transform="translate(181,8)"/>
<path d="M0 0 C-1.30783654 2.85401712 -2.41623653 4.44596771 -4.625 6.8125 C-7.28154592 9.84083784 -7.28154592 9.84083784 -7.5 13.6875 C-7.24353067 16.89406451 -7.24353067 16.89406451 -5.8125 18.875 C-3.5774211 20.26229035 -1.59094622 20.64987213 1 21 C1.38468326 24.37666417 1.14492972 25.77319655 -0.71484375 28.68359375 C-1.44832031 29.59238281 -2.18179688 30.50117187 -2.9375 31.4375 C-6.04860588 35.29483233 -7.75430236 37.97372831 -8 43 C-5.81567858 45.88642473 -4.44696406 46.85101198 -1 48 C0.62442649 47.90107433 2.24523183 47.73492389 3.859375 47.52734375 C19.46082556 45.87664213 19.46082556 45.87664213 23.76171875 49.015625 C25.4375 51.6875 25.4375 51.6875 26.78125 54.48046875 C28.71908034 58.48656031 30.95313453 59.29605664 35 61 C36.35298943 61.21584656 37.70722141 61.42402713 39.0625 61.625 C41.94681688 62.23514395 42.79818346 62.72992198 44.59375 65.1328125 C45.58388253 66.89714441 46.55492911 68.67230641 47.5078125 70.45703125 C51.46912254 77.20785019 57.81815178 80.54944742 65.21875 82.62109375 C67.13832867 83.11112704 69.06845892 83.55947309 71 84 C71 84.66 71 85.32 71 86 C69.11197917 86.68359375 67.22395833 87.3671875 65.3359375 88.05078125 C62.87138558 88.98882096 62.87138558 88.98882096 60.24487305 90.60058594 C56.4727662 92.22737974 54.73847482 92.09287675 50.74609375 91.33984375 C48.9681543 91.0140332 48.9681543 91.0140332 47.15429688 90.68164062 C45.92775391 90.43607422 44.70121094 90.19050781 43.4375 89.9375 C42.23802734 89.71900391 41.03855469 89.50050781 39.80273438 89.27539062 C33.91008073 88.1591891 28.23274585 86.82164399 22.53125 84.95703125 C15.46665482 82.69741352 8.40699155 81.66759137 1.0625 80.75 C-0.19240234 80.57726562 -1.44730469 80.40453125 -2.74023438 80.2265625 C-11.23376126 79.12271063 -19.44264631 78.7921491 -28 79 C-21.18113675 86.67200048 -21.18113675 86.67200048 -14 94 C-18.48117398 92.55524992 -21.2579248 90.24877655 -24.6875 87.0625 C-25.64011719 86.18722656 -26.59273437 85.31195313 -27.57421875 84.41015625 C-30 82 -30 82 -32 79 C-40.21214238 77.61573418 -48.10360698 79.69176674 -55.875 82.1875 C-56.86757812 82.47947266 -57.86015625 82.77144531 -58.8828125 83.07226562 C-64.64586403 84.86358846 -68.75239792 86.6691116 -73 91 C-75.29163354 95.68743224 -75.48700267 99.88647198 -75 105 C-73.68133728 106.678298 -72.34919532 108.34614767 -71 110 C-71.25 113.3125 -71.25 113.3125 -72 116 C-73.11979242 114.88020758 -74.23889873 113.75972433 -75.35546875 112.63671875 C-76.5980685 111.40002209 -77.85283833 110.17553706 -79.11328125 108.95703125 C-79.83902344 108.24933594 -80.56476563 107.54164062 -81.3125 106.8125 C-82.00988281 106.13832031 -82.70726563 105.46414062 -83.42578125 104.76953125 C-85 103 -85 103 -85 101 C-85.66 101 -86.32 101 -87 101 C-88.5859375 99.390625 -88.5859375 99.390625 -90.375 97.25 C-92.33757727 94.93096298 -94.2588295 92.74780716 -96.4375 90.625 C-98 89 -98 89 -98 87 C-98.66 87 -99.32 87 -100 87 C-100.06058594 87.7734375 -100.12117188 88.546875 -100.18359375 89.34375 C-100.65892599 95.25249543 -101.20914557 101.12508141 -102 107 C-103.485 106.505 -103.485 106.505 -105 106 C-105.20674944 100.21101581 -104.59162079 95.57067277 -103 90 C-106.45411499 90.70079254 -106.45411499 90.70079254 -110 92 C-111.11192119 93.84492458 -111.11192119 93.84492458 -112 96 C-112.89519362 97.36762876 -113.81643545 98.71842805 -114.7578125 100.0546875 C-115.29704346 100.82683594 -115.83627441 101.59898438 -116.3918457 102.39453125 C-116.96378662 103.21308594 -117.53572754 104.03164062 -118.125 104.875 C-128.06075156 119.30319011 -135.28934753 133.82370488 -141.81982422 150.03515625 C-148.84777106 167.39779473 -148.84777106 167.39779473 -154 173 C-157.5625 173.5 -157.5625 173.5 -161 173 C-164.25058324 174.41623241 -164.25058324 174.41623241 -167 176 C-167.66 176 -168.32 176 -169 176 C-167.95558323 173.26844845 -166.89263153 170.82242908 -165.375 168.3125 C-163.50874205 163.81651495 -163.74378022 159.80174842 -164 155 C-164.66 155 -165.32 155 -166 155 C-167.02104551 154.02149805 -168.0206121 153.02019573 -169 152 C-169.66 151.67 -170.32 151.34 -171 151 C-170.09934091 144.92055113 -165.14141091 141.14141091 -161 137 C-159.64444707 135.35135455 -158.30368347 133.68996005 -157 132 C-158.65 130.68 -160.3 129.36 -162 128 C-160.44793719 114.97084112 -157.4927171 106.0385406 -149 96 C-148.36964844 95.16210938 -147.73929688 94.32421875 -147.08984375 93.4609375 C-139.04460683 83.9871071 -126.14599194 80.29109224 -114.1875 79.25 C-112.45912418 79.15161897 -110.73005058 79.06234417 -109 79 C-112.37793463 74.59269475 -115.75859504 70.22431611 -119.4375 66.0625 C-122 63 -122 63 -122 61 C-122.57234375 60.773125 -123.1446875 60.54625 -123.734375 60.3125 C-126.62894375 58.63564638 -128.17830585 56.6231523 -130.25 54 C-131.02730469 53.02160156 -131.80460937 52.04320312 -132.60546875 51.03515625 C-133.39566406 50.03355469 -134.18585938 49.03195313 -135 48 C-135.77988281 47.04996094 -136.55976563 46.09992187 -137.36328125 45.12109375 C-138.08902344 44.23550781 -138.81476563 43.34992187 -139.5625 42.4375 C-140.22378906 41.63183594 -140.88507813 40.82617188 -141.56640625 39.99609375 C-143 38 -143 38 -143 36 C-144.485 35.505 -144.485 35.505 -146 35 C-147.640625 32.85546875 -147.640625 32.85546875 -149.25 30.1875 C-149.79140625 29.31480469 -150.3328125 28.44210938 -150.890625 27.54296875 C-152 25 -152 25 -151.671875 22.67578125 C-151.45015625 22.12277344 -151.2284375 21.56976562 -151 21 C-146.54902465 22.3773123 -144.58032267 24.28428722 -141.75 27.9375 C-140.96882813 28.92878906 -140.18765625 29.92007813 -139.3828125 30.94140625 C-138.59648437 31.95074219 -137.81015625 32.96007813 -137 34 C-135.54742281 35.79633656 -134.08916161 37.58809308 -132.625 39.375 C-131.88507813 40.27863281 -131.14515625 41.18226562 -130.3828125 42.11328125 C-118.87214579 56.39634189 -118.87214579 56.39634189 -106.25 69.6484375 C-105 71 -105 71 -105 73 C-104.34 73 -103.68 73 -103 73 C-102.86537354 71.95827637 -102.86537354 71.95827637 -102.72802734 70.89550781 C-98.53021595 39.39362557 -98.53021595 39.39362557 -86 28 C-79.25600385 23.37176735 -71.31358926 20.63865343 -63.69921875 17.74609375 C-62.64347656 17.33488281 -61.58773437 16.92367188 -60.5 16.5 C-59.5409375 16.1390625 -58.581875 15.778125 -57.59375 15.40625 C-54.5376949 13.74935265 -53.08304513 11.74084885 -51 9 C-50.34 9 -49.68 9 -49 9 C-48.71125 9.639375 -48.4225 10.27875 -48.125 10.9375 C-47.17176549 13.15206079 -47.17176549 13.15206079 -45 14 C-39.69941399 14.75722657 -36.92872286 13.02003921 -32.734375 10.09375 C-31 9 -31 9 -29 9 C-29 8.34 -29 7.68 -29 7 C-19.0614173 2.21340319 -11.12008698 -0.41016714 0 0 Z " fill="#DB404C" transform="translate(181,8)"/>
<path d="M0 0 C0.66 0 1.32 0 2 0 C3.5859375 1.86328125 3.5859375 1.86328125 5.375 4.3125 C7.20978415 6.82219374 8.73249408 8.79960522 11.2265625 10.66796875 C11.81179687 11.10753906 12.39703125 11.54710938 13 12 C13 12.66 13 13.32 13 14 C13.66 14 14.32 14 15 14 C16.55078125 15.57421875 16.55078125 15.57421875 18.3125 17.6875 C20.44269412 20.23214611 22.3952859 22.33641354 24.9375 24.5 C27.77122687 27.93482045 27.31959427 30.75759819 27 35 C26.45915159 39.64201228 25.77252018 44.25618357 25.0625 48.875 C24.78889648 50.72738281 24.78889648 50.72738281 24.50976562 52.6171875 C23.1362159 61.72756819 23.1362159 61.72756819 22 64 C23.32 64 24.64 64 26 64 C25.97381592 65.18327881 25.94763184 66.36655762 25.9206543 67.58569336 C25.82877738 72.06042869 25.77226176 76.53508466 25.7253418 81.01049805 C25.70050557 82.93154001 25.66662419 84.85249069 25.62280273 86.77319336 C25.26194421 103.02031764 27.35303669 116.92350909 34.8125 131.5625 C35.12380859 132.20123047 35.43511719 132.83996094 35.75585938 133.49804688 C36.49210667 135.0045221 37.24403586 136.50332171 38 138 C36.93359375 139.5 36.93359375 139.5 35 141 C31.41466114 141.20910846 27.93288597 140.99345797 24.34765625 140.8125 C20.68720688 141.01751933 19.44943684 141.32110772 17 144 C15.88468046 146.47561805 15.88468046 146.47561805 15.25 149.1875 C14.88648437 150.53908203 14.88648437 150.53908203 14.515625 151.91796875 C14.34546875 152.60503906 14.1753125 153.29210937 14 154 C13.34 154 12.68 154 12 154 C11.443125 152.948125 10.88625 151.89625 10.3125 150.8125 C7.78880398 146.43751141 4.69569956 143.2952077 0.66796875 140.21875 C-5.61018761 135.17363484 -8.56430607 130.69372751 -10.93530273 123.14111328 C-12.00725106 119.86106196 -12.76169199 118.18453217 -15.52734375 116.04296875 C-17.90099346 114.81661012 -17.90099346 114.81661012 -20.25 115.1875 C-22.19421191 115.86931817 -22.19421191 115.86931817 -23 118 C-23.66 118 -24.32 118 -25 118 C-25.25876118 112.73852264 -25.01648994 108.60091334 -23.4375 103.5625 C-21.85517484 98.17199514 -21.38596483 93.4473687 -23 88 C-24.81429854 85.09846705 -24.81429854 85.09846705 -28 84 C-32.73476963 83.59889613 -36.63206659 84.30695247 -40.375 87.3125 C-42.47884943 89.46644108 -44.21730851 91.59336649 -46 94 C-46.66 94 -47.32 94 -48 94 C-49.0064275 92.33720673 -50.00585407 90.67016516 -51 89 C-51.99 88.34 -52.98 87.68 -54 87 C-53.35886157 83.54101858 -51.97158074 81.24574641 -50.0625 78.3125 C-46.39150034 72.19168516 -43.90976485 65.84779913 -41.375 59.1875 C-34.84463213 42.24106201 -26.2032409 26.32414372 -15 12 C-14.07811106 10.64938313 -13.1608692 9.29557306 -12.25 7.9375 C-10.19221871 5.2509522 -9.18917324 3.95675197 -6 3 C-5.01 3 -4.02 3 -3 3 C-3.66 8.28 -4.32 13.56 -5 19 C-6.546875 19.2475 -8.09375 19.495 -9.6875 19.75 C-15.15337465 20.85398316 -18.2877099 22.53693654 -21.5234375 27.19140625 C-26.45416436 36.57022268 -27.1802559 49.27254135 -25.375 59.5625 C-24.16619609 62.19831199 -24.16619609 62.19831199 -21.4375 63.4375 C-17.09225186 64.14854061 -13.26977164 64.13860577 -9 63 C-6.23967897 60.87667613 -4.93771659 58.90657489 -3 56 C-2.34 56 -1.68 56 -1 56 C-0.71125 56.969375 -0.4225 57.93875 -0.125 58.9375 C0.64214682 62.10664203 0.64214682 62.10664203 3 63 C4.70363822 63.22622081 6.41328701 63.40888473 8.125 63.5625 C9.03507812 63.64628906 9.94515625 63.73007813 10.8828125 63.81640625 C11.58148438 63.87699219 12.28015625 63.93757813 13 64 C13 62.02 13 60.04 13 58 C11.02 57.505 11.02 57.505 9 57 C7.79437298 52.64288594 8.2522983 48.88989271 8.99609375 44.51171875 C9.10848892 43.80852005 9.22088409 43.10532135 9.33668518 42.3808136 C9.69543963 40.14829301 10.06627505 37.91797731 10.4375 35.6875 C10.68374447 34.16874957 10.92919585 32.64987032 11.17382812 31.13085938 C11.77337966 27.4190186 12.38376933 23.70910665 13 20 C10.36 20 7.72 20 5 20 C4.67 22.31 4.34 24.62 4 27 C3.34 27 2.68 27 2 27 C1.71125 26.195625 1.4225 25.39125 1.125 24.5625 C0.26737432 21.8673532 0.26737432 21.8673532 -2 21 C-2.24091535 13.7725395 -1.34495828 7.09705662 0 0 Z " fill="#F36353" transform="translate(81,95)"/>
<path d="M0 0 C-1.30783654 2.85401712 -2.41623653 4.44596771 -4.625 6.8125 C-7.28154592 9.84083784 -7.28154592 9.84083784 -7.5 13.6875 C-7.24353067 16.89406451 -7.24353067 16.89406451 -5.8125 18.875 C-3.5774211 20.26229035 -1.59094622 20.64987213 1 21 C1.38468326 24.37666417 1.14492972 25.77319655 -0.71484375 28.68359375 C-1.44832031 29.59238281 -2.18179688 30.50117187 -2.9375 31.4375 C-6.04860588 35.29483233 -7.75430236 37.97372831 -8 43 C-5.81567858 45.88642473 -4.44696406 46.85101198 -1 48 C0.63567896 47.91254751 2.2682462 47.75817964 3.89453125 47.5625 C4.85037109 47.47355469 5.80621094 47.38460937 6.79101562 47.29296875 C8.79698738 47.09846599 10.80013742 46.87210451 12.79882812 46.61328125 C15.76952701 46.36987946 18.10094924 46.28805126 21 47 C23.87370492 49.58992402 25.72735512 52.34506981 27 56 C26.80883789 58.18334961 26.80883789 58.18334961 26 60 C17.7839207 65.52092034 8.68368496 68.31098518 -1 70 C0.09068668 73.77545388 0.9083091 76.47043472 4 79 C2.33317469 78.8559912 0.66654815 78.70968156 -1 78.5625 C-1.928125 78.48128906 -2.85625 78.40007812 -3.8125 78.31640625 C-6.11927543 78.08742487 -8.42131088 77.80889938 -10.71875 77.5 C-15.63233455 76.87351797 -20.55417261 76.65675543 -25.5 76.4375 C-26.87671875 76.37272461 -26.87671875 76.37272461 -28.28125 76.30664062 C-30.52072061 76.20166544 -32.76028092 76.09950752 -35 76 C-34.34 75.401875 -33.68 74.80375 -33 74.1875 C-30.6626154 72.12498166 -30.6626154 72.12498166 -31 69 C-34.26327782 67.36836109 -37.9062534 67.74958225 -41.5 67.625 C-58.11509708 66.88490292 -58.11509708 66.88490292 -63 62 C-63.6875 59.25 -63.6875 59.25 -63 56 C-60.90336055 54.22289016 -58.73699478 52.86747737 -56.359375 51.4921875 C-53.93073453 50.10723388 -53.93073453 50.10723388 -52.20703125 47.9921875 C-49.11905907 45.20481438 -45.88461558 44.37977746 -41.9375 43.25 C-41.21755859 43.02957031 -40.49761719 42.80914062 -39.75585938 42.58203125 C-36.7462588 41.68222495 -34.15676008 41 -31 41 C-32.32 41 -33.64 41 -35 41 C-37.53542378 41.67097364 -40.00627106 42.38716372 -42.5 43.1875 C-43.20833984 43.41236084 -43.91667969 43.63722168 -44.64648438 43.86889648 C-52.47562152 46.40418853 -60.0392887 49.45043953 -67.375 53.1875 C-73.36008935 56.22930467 -78.2835806 57.64997607 -85 57 C-87.5 55.5625 -87.5 55.5625 -89 53 C-90.5195182 42.91580536 -85.47778161 33.1897393 -80 25 C-76.89976534 22.12648318 -74.02135647 21.14663002 -70 20 C-68.03555457 19.29432037 -66.09035355 18.55007728 -64.14697266 17.78833008 C-62.83196683 17.27563341 -61.50876167 16.78333561 -60.17724609 16.31518555 C-55.78320635 14.68200775 -53.72317539 12.74911588 -51 9 C-50.34 9 -49.68 9 -49 9 C-48.71125 9.639375 -48.4225 10.27875 -48.125 10.9375 C-47.17176549 13.15206079 -47.17176549 13.15206079 -45 14 C-39.69941399 14.75722657 -36.92872286 13.02003921 -32.734375 10.09375 C-31 9 -31 9 -29 9 C-29 8.34 -29 7.68 -29 7 C-19.0614173 2.21340319 -11.12008698 -0.41016714 0 0 Z " fill="#F36353" transform="translate(181,8)"/>
<path d="M0 0 C2.97 0 5.94 0 9 0 C11.64 5.94 14.28 11.88 17 18 C18.670625 17.835 20.34125 17.67 22.0625 17.5 C31.53328589 18.277204 36.24323553 26.06854074 42.03808594 32.79248047 C58.3919608 51.1936423 79.89005372 66.97030938 101.375 78.87890625 C102.179375 79.43384766 102.179375 79.43384766 103 80 C103 80.66 103 81.32 103 82 C75.74924216 85.8294666 75.74924216 85.8294666 68 81 C65.75390877 79.01322659 63.69331976 76.94930795 61.6640625 74.7421875 C59.4674044 72.44239991 58.36089933 72.04811991 55.1875 71.625 C51.91174039 71.77629385 51.91174039 71.77629385 49.25 73.75 C45.9727249 78.48384181 45.60280799 83.35879683 45 89 C41.11152009 87.47269638 39.23634816 85.12557367 36.6875 81.875 C34.04950001 78.52029297 31.42250154 75.41620918 28.375 72.4375 C24.25347663 67.87711071 22.50889405 62.17110107 20.57177734 56.43334961 C18.82340248 51.420807 17.05959551 48.45689105 13 45 C9.96897144 45.87740301 8.38277146 46.34928852 6.75 49.125 C4.12044023 59.20497913 4.45634669 69.77329684 6 80 C6.36619718 89.26760563 6.36619718 89.26760563 5 92 C4.34 92 3.68 92 3 92 C1.73034618 89.65483846 0.48527394 87.30072799 -0.75 84.9375 C-1.09804687 84.30005859 -1.44609375 83.66261719 -1.8046875 83.00585938 C-8.3202921 70.39695789 -9.59958163 58.01911646 -9.3125 44.125 C-9.30095971 42.67970058 -9.29118924 41.23438593 -9.28320312 39.7890625 C-9.22228612 32.80131141 -8.95301899 25.92682097 -8 19 C-6.35 19 -4.7 19 -3 19 C-2.01 12.73 -1.02 6.46 0 0 Z " fill="#DB3F4C" transform="translate(115,140)"/>
<path d="M0 0 C2.9375 1.625 2.9375 1.625 5 5 C5.46139997 12.55189342 4.70109937 21.24549365 1 28 C-1.90926665 30.66682776 -3.64449776 30.95634183 -7.5625 31.4375 C-11 31 -11 31 -13.4375 29.5 C-17.2888622 23.33782049 -14.56083197 14.81663722 -13.04296875 8.16796875 C-10.99761703 1.95530867 -6.80693035 -1.44828305 0 0 Z " fill="#F06354" transform="translate(78,121)"/>
<path d="M0 0 C2.81351786 1.28895717 4.9325707 2.66268505 7.171875 4.79296875 C7.749375 5.33695313 8.326875 5.8809375 8.921875 6.44140625 C9.52515625 7.01761719 10.1284375 7.59382812 10.75 8.1875 C12.01482622 9.37975422 13.28044417 10.57116911 14.546875 11.76171875 C15.14951172 12.32938965 15.75214844 12.89706055 16.37304688 13.48193359 C18.21262382 15.1983936 20.0912277 16.86094553 22 18.5 C26.38502541 22.27888799 30.59457068 26.24589299 34.81445312 30.20703125 C38.34822146 33.51216758 41.95211488 36.67220175 45.71264648 39.71850586 C46.13747314 40.14139893 46.5622998 40.56429199 47 41 C47 41.66 47 42.32 47 43 C37.08374028 38.31429486 28.63964987 30.02077875 20.39453125 22.89453125 C19.77916504 22.3629541 19.16379883 21.83137695 18.52978516 21.28369141 C17.33252732 20.24636412 16.13802622 19.20584346 14.94677734 18.16162109 C12.2720284 15.84030174 9.756782 13.8491874 6.73046875 11.97265625 C3.64253165 9.74174318 2.84154059 8.30604172 1.625 4.75 C1.30789062 3.85796875 0.99078125 2.9659375 0.6640625 2.046875 C0.44492188 1.37140625 0.22578125 0.6959375 0 0 Z " fill="#DC434B" transform="translate(135,143)"/>
<path d="M0 0 C2.375 0.3125 2.375 0.3125 5 1 C8.40987973 6.1148196 6.80425294 12.1021451 6 18 C5.20052563 21.14740436 4.20005951 23.97376298 3 27 C2.34 27 1.68 27 1 27 C0.05757182 17.96278689 -0.11157151 9.07448253 0 0 Z " fill="#E96155" transform="translate(76,122)"/>
<path d="M0 0 C0.33 0.66 0.66 1.32 1 2 C2.00353516 1.94779297 2.00353516 1.94779297 3.02734375 1.89453125 C9.47594619 1.71275856 15.54400324 2.24739237 21.875 3.375 C22.587771 3.50108643 23.30054199 3.62717285 24.03491211 3.75708008 C28.15512952 4.5314626 32.05728378 5.57864462 36 7 C35.67 7.66 35.34 8.32 35 9 C34.2678125 8.79503906 33.535625 8.59007812 32.78125 8.37890625 C20.96427821 5.43873113 9.1236067 5.27044279 -3 5 C-2.01 3.35 -1.02 1.7 0 0 Z " fill="#DE484A" transform="translate(137,129)"/>
<path d="M0 0 C0.66 0 1.32 0 2 0 C2.05534912 0.59014893 2.11069824 1.18029785 2.16772461 1.78833008 C2.42067687 4.46341208 2.679027 7.13794603 2.9375 9.8125 C3.02451172 10.74126953 3.11152344 11.67003906 3.20117188 12.62695312 C3.28818359 13.51962891 3.37519531 14.41230469 3.46484375 15.33203125 C3.543396 16.15421143 3.62194824 16.9763916 3.70288086 17.82348633 C3.95551045 20.17487422 3.95551045 20.17487422 5 23 C4.0625 25.1875 4.0625 25.1875 3 27 C2.34 27 1.68 27 1 27 C0.05757182 17.96278689 -0.11157151 9.07448253 0 0 Z " fill="#DC454C" transform="translate(76,122)"/>
<path d="M0 0 C1.24136719 0.00580078 1.24136719 0.00580078 2.5078125 0.01171875 C3.31992188 0.00785156 4.13203125 0.00398438 4.96875 0 C9.02860824 0.00661215 12.79729064 0.12243876 16.7578125 1.13671875 C16.7578125 1.46671875 16.7578125 1.79671875 16.7578125 2.13671875 C5.8678125 2.63171875 5.8678125 2.63171875 -5.2421875 3.13671875 C-5.5721875 5.44671875 -5.9021875 7.75671875 -6.2421875 10.13671875 C-6.5721875 10.13671875 -6.9021875 10.13671875 -7.2421875 10.13671875 C-7.26907966 8.65764983 -7.28853371 7.17844392 -7.3046875 5.69921875 C-7.31628906 4.87550781 -7.32789063 4.05179687 -7.33984375 3.203125 C-7.12743421 -1.29146078 -3.71109702 0.00608377 0 0 Z " fill="#D6685C" transform="translate(168.2421875,112.86328125)"/>
<path d="M0 0 C-1.52572656 3.32635882 -2.93344504 4.95563002 -6 7 C-6 5.35 -6 3.7 -6 2 C-6.74765625 2.15597656 -7.4953125 2.31195313 -8.265625 2.47265625 C-9.74289063 2.76462891 -9.74289063 2.76462891 -11.25 3.0625 C-12.71179688 3.35833984 -12.71179688 3.35833984 -14.203125 3.66015625 C-16.868119 3.98397535 -18.48871723 3.85503199 -21 3 C-13.84224277 0.71387222 -7.51806849 -0.44032071 0 0 Z " fill="#DF6556" transform="translate(181,8)"/>
<path d="M0 0 C0.66 0 1.32 0 2 0 C2.81977607 2.8314037 3.63094274 5.66482902 4.4375 8.5 C4.66759766 9.29148438 4.89769531 10.08296875 5.13476562 10.8984375 C6.56049993 15.9401646 7.47970426 20.78508177 8 26 C6.32122924 23.48184386 5.56429967 21.99535449 4.74609375 19.19921875 C4.53146484 18.46896484 4.31683594 17.73871094 4.09570312 16.98632812 C3.87849609 16.22771484 3.66128906 15.46910156 3.4375 14.6875 C3.21642578 13.94048828 2.99535156 13.19347656 2.76757812 12.42382812 C1.56973776 8.30195447 0.60275874 4.25994658 0 0 Z " fill="#DB4A4A" transform="translate(78,151)"/>
<path d="M0 0 C1.98 0 3.96 0 6 0 C7.05404945 3.98196457 6.84098656 6.98195309 6 11 C6.66 11.33 7.32 11.66 8 12 C8 14 8 14 6.625 15.625 C5 17 5 17 3 17 C3.66 11.72 4.32 6.44 5 1 C3.35 1 1.7 1 0 1 C0 0.67 0 0.34 0 0 Z " fill="#E46557" transform="translate(180,113)"/>
<path d="M0 0 C3.3 0 6.6 0 10 0 C9.4887988 4.50343911 7.82478642 6.87525426 4.9375 10.3125 C4.20402344 11.19550781 3.47054687 12.07851562 2.71484375 12.98828125 C2.14894531 13.65214844 1.58304688 14.31601563 1 15 C0.34 14.67 -0.32 14.34 -1 14 C1.97 10.04 4.94 6.08 8 2 C5.36 1.67 2.72 1.34 0 1 C0 0.67 0 0.34 0 0 Z " fill="#D8675C" transform="translate(139,114)"/>
<path d="M0 0 C-0.99 0.66 -1.98 1.32 -3 2 C-6.59073361 4.67003268 -9.31467647 7.41956863 -12 11 C-11.875 7.75 -11.875 7.75 -11 4 C-7.41242891 0.82010744 -4.81158252 -0.56606853 0 0 Z " fill="#E46459" transform="translate(69,114)"/>
<path d="M0 0 C2.64752004 2.57784846 4.94432065 4.91648098 7 8 C4.36 8 1.72 8 -1 8 C-0.67 5.36 -0.34 2.72 0 0 Z " fill="#D5464F" transform="translate(117,124)"/>
<path d="M0 0 C0.66 0 1.32 0 2 0 C1.75787346 3.26870835 0.72467093 4.2954751 -1.5625 6.75 C-5.29974695 9.72343006 -8.36935647 9.39919341 -13 9 C-13 8.67 -13 8.34 -13 8 C-12.07767578 7.72736328 -12.07767578 7.72736328 -11.13671875 7.44921875 C-9.92435547 7.07216797 -9.92435547 7.07216797 -8.6875 6.6875 C-7.48673828 6.32205078 -7.48673828 6.32205078 -6.26171875 5.94921875 C-3.10821115 4.62572592 -1.51923542 3.03847083 0 0 Z " fill="#E1645A" transform="translate(77,152)"/>
<path d="M0 0 C0.33 0 0.66 0 1 0 C1.66 1.98 2.32 3.96 3 6 C5.97 6.495 5.97 6.495 9 7 C9 7.33 9 7.66 9 8 C7.20866022 8.05391993 5.41686101 8.09275571 3.625 8.125 C2.62726563 8.14820312 1.62953125 8.17140625 0.6015625 8.1953125 C-2 8 -2 8 -4 6 C-2.68 5.67 -1.36 5.34 0 5 C0 3.35 0 1.7 0 0 Z " fill="#E16156" transform="translate(176,99)"/>
<path d="M0 0 C3.96 0.33 7.92 0.66 12 1 C12 1.33 12 1.66 12 2 C10.741875 2.103125 9.48375 2.20625 8.1875 2.3125 C5.39500343 2.64858808 4.25566879 2.80025876 2 4.5625 C1.67 5.036875 1.34 5.51125 1 6 C0.67 4.02 0.34 2.04 0 0 Z " fill="#E36558" transform="translate(82,158)"/>
<path d="M0 0 C0.66 0.33 1.32 0.66 2 1 C1.6875 2.875 1.6875 2.875 1 5 C0.01 5.66 -0.98 6.32 -2 7 C-3.19232613 9.05003955 -3.19232613 9.05003955 -4 11 C-3.38461538 3.49230769 -3.38461538 3.49230769 -1.4375 1 C-0.963125 0.67 -0.48875 0.34 0 0 Z " fill="#E56657" transform="translate(69,123)"/>
<path d="M0 0 C0.66 0 1.32 0 2 0 C5.39019075 3.55556591 7.55491959 5.95575532 8 11 C7.34 11 6.68 11 6 11 C1.71428571 3.57142857 1.71428571 3.57142857 0 0 Z " fill="#DE685A" transform="translate(87,238)"/>
<path d="M0 0 C1.37562854 1.28965176 2.70766393 2.62689293 4 4 C4 4.66 4 5.32 4 6 C0.37 5.67 -3.26 5.34 -7 5 C-7 4.67 -7 4.34 -7 4 C-3.535 3.505 -3.535 3.505 0 3 C0 2.01 0 1.02 0 0 Z " fill="#DC6459" transform="translate(225,217)"/>
<path d="M0 0 C0 3.21534057 -0.26476072 4.35582586 -2 7 C-4.625 8.75 -4.625 8.75 -7 10 C-5.33248852 6.05860922 -2.77289351 3.2107188 0 0 Z " fill="#CA4750" transform="translate(25,139)"/>
</svg>
